Coordinates
version=1
nRows=24
nColumns=24
inDegrees=yes

Units are S.I. units (second, meters, Newtons, ...)
Angles are in degrees.

endheader
time	pelvis_tilt	pelvis_list	pelvis_rotation	pelvis_tx	pelvis_ty	pelvis_tz	hip_flexion_r	hip_adduction_r	hip_rotation_r	knee_angle_r	ankle_angle_r	subtalar_angle_r	mtp_angle_r	hip_flexion_l	hip_adduction_l	hip_rotation_l	knee_angle_l	ankle_angle_l	subtalar_angle_l	mtp_angle_l	lumbar_extension	lumbar_bending	lumbar_rotation
      1.88783333	      4.03629411	      2.99427701	     -5.33543636	      1.45344490	      1.02484368	      0.24113853	     13.56108277	     -6.45166424	     -5.53143730	    -56.01129218	      9.95524318	    -17.11448224	     -4.25744081	      6.69554079	      9.00780963	      1.23786242	    -20.07822204	     11.45635320	    -12.58491458	     -2.02676252	     -3.35304685	     -5.02038306	      4.80819764
      1.89200000	      3.97939896	      2.94810080	     -5.20357463	      1.45755701	      1.02514956	      0.24075686	     14.15937870	     -6.31309180	     -5.48463058	    -55.39373043	     10.05340850	    -17.18436455	     -4.36686145	      6.39824896	      8.99973736	      1.39714431	    -19.89521570	     11.55896072	    -12.54477217	     -2.06627248	     -3.39994777	     -4.96164846	      4.45401219
      1.89616667	      3.94376953	      2.89272464	     -5.06250555	      1.46165994	      1.02546004	      0.24038824	     14.71512375	     -6.17025249	     -5.45662632	    -54.74110577	     10.19648601	    -17.20225731	     -4.42037835	      6.08623278	      8.97979445	      1.53781230	    -19.73495501	     11.67349580	    -12.51725933	     -2.08444845	     -3.45008261	     -4.89985451	      4.32238005
      1.90033333	      3.91032332	      2.84922570	     -4.93571108	      1.46581536	      1.02574418	      0.24005377	     15.25822869	     -6.03547093	     -5.40308275	    -54.06302967	     10.27146666	    -17.22798754	     -4.52482498	      5.76162854	      8.97129944	      1.67946112	    -19.54653520	     11.77071801	    -12.48763750	     -2.12570862	     -3.48649554	     -4.85534933	      4.02788221
      1.90450000	      3.86060034	      2.81073343	     -4.82033167	      1.46991817	      1.02596253	      0.23973664	     15.81795377	     -5.90329652	     -5.33185987	    -53.37429624	     10.36809616	    -17.18734638	     -4.54639175	      5.46070459	      8.96613173	      1.81118566	    -19.36495400	     11.87888748	    -12.46645402	     -2.13407612	     -3.49690596	     -4.79531230	      3.95634543
      1.90866667	      3.77679569	      2.75158198	     -4.68087753	      1.47403116	      1.02611326	      0.23940864	     16.39185987	     -5.74567568	     -5.27606101	    -52.64533824	     10.40146607	    -17.14224782	     -4.58488876	      5.21355964	      8.93748673	      1.97020819	    -19.22509718	     11.97731704	    -12.48481467	     -2.15279362	     -3.50342231	     -4.72092430	      3.76251471
      1.91283333	      3.73211315	      2.70211310	     -4.55918388	      1.47813316	      1.02628590	      0.23911645	     16.91637361	     -5.59849948	     -5.19701177	    -51.89648278	     10.42305765	    -17.07152216	     -4.61373415	      4.91499522	      8.92208663	      2.12900278	    -19.06409725	     12.07865690	    -12.49186563	     -2.17004096	     -3.53272264	     -4.66222037	      3.58761512
      1.91700000	      3.66912078	      2.67028784	     -4.44513232	      1.48225847	      1.02640020	      0.23884442	     17.45552924	     -5.46882829	     -5.10300125	    -51.13521855	     10.42593403	    -16.96524977	     -4.62579182	      4.63718401	      8.92181472	      2.27136246	    -18.89539802	     12.17897439	    -12.49219476	     -2.17782784	     -3.51849069	     -4.62117924	      3.48332683
      1.92116667	      3.59541380	      2.62040312	     -4.32431866	      1.48633134	      1.02646494	      0.23858395	     17.99126428	     -5.31612689	     -5.00892716	    -50.34495906	     10.39945517	    -16.84260078	     -4.63532238	      4.38735887	      8.90110707	      2.42181252	    -18.75741540	     12.27762586	    -12.52361036	     -2.18601889	     -3.51570198	     -4.55635563	      3.34056645
      1.92533333	      3.52147737	      2.57684227	     -4.17936697	      1.49043786	      1.02649931	      0.23831053	     18.50978645	     -5.17172532	     -4.91724368	    -49.53772588	     10.34402405	    -16.74154076	     -4.65061778	      4.13534597	      8.89396566	      2.63698056	    -18.62627171	     12.32860646	    -12.63474910	     -2.21756864	     -3.53535423	     -4.52226486	      3.01400121
      1.92950000	      3.44745725	      2.52736291	     -4.05050435	      1.49453433	      1.02651574	      0.23807010	     19.01458962	     -5.02234055	     -4.82105324	    -48.70160357	     10.29126052	    -16.55795726	     -4.65159281	      3.89047240	      8.87394789	      2.80648394	    -18.50598516	     12.42923673	    -12.67603000	     -2.22821426	     -3.53906643	     -4.45733397	      2.93991083
      1.93366667	      3.35918495	      2.47286902	     -3.92523674	      1.49861036	      1.02647426	      0.23784662	     19.52318907	     -4.86392640	     -4.71460103	    -47.84307939	     10.20728728	    -16.37966088	     -4.64731310	      3.67190714	      8.84740567	      2.97238535	    -18.40433831	     12.52136084	    -12.75102426	     -2.23949175	     -3.52559578	     -4.38951107	      2.80888257
      1.93783333	      3.28571155	      2.43431606	     -3.77662392	      1.50267606	      1.02642764	      0.23761729	     20.00669665	     -4.72745454	     -4.61295928	    -46.97113666	     10.08909317	    -16.23587159	     -4.62429458	      3.42669185	      8.84357213	      3.20330098	    -18.27782984	     12.57580196	    -12.87666680	     -2.26452293	     -3.52247028	     -4.35857117	      2.57129033
      1.94200000	      3.21492632	      2.38537133	     -3.65224848	      1.50678482	      1.02637020	      0.23743119	     20.47022718	     -4.57801005	     -4.49547167	    -46.08019315	      9.96397126	    -16.00153999	     -4.61431075	      3.18370840	      8.82011003	      3.36061583	    -18.16921762	     12.68416141	    -12.92321934	     -2.26990293	     -3.52208041	     -4.30165324	      2.51105866
      1.94616667	      3.14576028	      2.34066448	     -3.49989356	      1.51086888	      1.02628450	      0.23721842	     20.91107057	     -4.43823924	     -4.38846715	    -45.15808961	      9.82046207	    -15.83488659	     -4.56141637	      2.94225530	      8.81230380	      3.62282385	    -18.06227710	     12.71557485	    -13.11265767	     -2.29471025	     -3.52898738	     -4.25690954	      2.29152265
      1.95033333	      3.06260501	      2.30922304	     -3.36849947	      1.51493391	      1.02612137	      0.23705308	     21.37408634	     -4.31258117	     -4.27155230	    -44.24369396	      9.67018625	    -15.57763972	     -4.54750741	      2.72851371	      8.80504609	      3.78305076	    -17.97546002	     12.83051270	    -13.15383179	     -2.29724251	     -3.51443520	     -4.22292542	      2.24403602
      1.95450000	      2.97410154	      2.25263085	     -3.19930792	      1.51902426	      1.02597441	      0.23684452	     21.80092628	     -4.16710562	     -4.17561376	    -43.27815666	      9.50288303	    -15.38102507	     -4.50658254	      2.52459562	      8.77735647	      4.02740090	    -17.90724123	     12.89146394	    -13.29731494	     -2.30946801	     -3.51199707	     -4.14416244	      2.10008308
      1.95866667	      2.89727223	      2.22636506	     -3.03448774	      1.52310832	      1.02579429	      0.23665590	     22.21765658	     -4.05833576	     -4.07107453	    -42.31527077	      9.30624810	    -15.19413461	     -4.40544505	      2.29194204	      8.78579551	      4.30909074	    -17.79490506	     12.91218858	    -13.51609667	     -2.33431826	     -3.50640881	     -4.13387929	      1.87231409
      1.96283333	      2.83394470	      2.20590426	     -2.90448201	      1.52721432	      1.02559767	      0.23652446	     22.61428158	     -3.95083260	     -3.94267108	    -41.34489857	      9.13765713	    -14.92463459	     -4.38745346	      2.06022120	      8.78781773	      4.46215357	    -17.71871918	     13.02804378	    -13.55460080	     -2.33625491	     -3.49641673	     -4.12558218	      1.84360303
      1.96700000	      2.74792396	      2.15225716	     -2.70323585	      1.53129790	      1.02539065	      0.23631281	     22.99248592	     -3.82838919	     -3.87985708	    -40.31666355	      8.90811800	    -14.77592860	     -4.26834585	      1.85034566	      8.76461079	      4.78523758	    -17.64421471	     13.05487966	    -13.79355249	     -2.36186160	     -3.50420210	     -4.06334134	      1.61456479
      1.97116667	      2.67948476	      2.14501313	     -2.54695009	      1.53540579	      1.02513562	      0.23617406	     23.36868998	     -3.74936280	     -3.77084066	    -39.32801643	      8.72901409	    -14.49722052	     -4.24576223	      1.62567722	      8.77660351	      4.96445569	    -17.56533834	     13.16983408	    -13.82509114	     -2.36387271	     -3.49093343	     -4.06662498	      1.58331617
      1.97533333	      2.60603230	      2.12040823	     -2.37881092	      1.53953683	      1.02486606	      0.23601909	     23.72620525	     -3.66102285	     -3.68883314	    -38.30364378	      8.53732713	    -14.24949694	     -4.21768930	      1.40831647	      8.77272939	      5.18379987	    -17.50288875	     13.28278784	    -13.90248259	     -2.36712628	     -3.47861845	     -4.04046487	      1.52214287
      1.97950000	      2.54978745	      2.08847039	     -2.16302511	      1.54362598	      1.02463177	      0.23579649	     24.03131678	     -3.58082192	     -3.63613835	    -37.22350133	      8.29549553	    -14.15221884	     -4.06171736	      1.16740167	      8.77425897	      5.55009804	    -17.42942763	     13.25555428	    -14.23337883	     -2.40180368	     -3.52909998	     -4.00608364	      1.22420687
      1.98366667	      2.47996827	      2.08532388	     -1.96062171	      1.54775203	      1.02432240	      0.23559940	     24.35967343	     -3.53524427	     -3.57700936	    -36.18203435	      8.11376765	    -13.92795291	     -3.85307360	      0.94297063	      8.79681452	      5.84723581	    -17.35627186	     13.30355204	    -14.42472091	     -2.44549926	     -3.53663652	     -4.00467541	      1.06961332
